<svg xmlns="http://www.w3.org/2000/svg" version="1.1" width="640" height="480"><g fill="none" stroke="#000000" stroke-width="1" stroke-linecap="butt" stroke-linejoin="miter" stroke-miterlimit="10" stroke-dasharray="" stroke-dashoffset="0" font-family="sans-serif" font-weight="normal" font-size="12" text-anchor="start" mix-blend-mode="normal"><polyline points="274.5,71 265.5,72 251.5,79 236.5,88 214.5,105 192.5,123 181.5,135 174.5,146 173.5,152 173.5,159 177.5,171 188.5,179 204.5,188 221.5,194 240.5,198 257.5,200 269.5,200 278.5,200 282.5,196 285.5,190 285.5,180 278.5,171 264.5,161 250.5,158 238.5,157 231.5,157 225.5,157 222.5,157 221.5,158 221.5,159 221.5,161 221.5,162 222.5,163 223.5,164 225.5,165 226.5,165 228.5,165 229.5,165 229.5,165 229.5,165"></polyline></g></svg>